<svg width="1731" height="773" viewBox="0 0 1731 773" fill="none" xmlns="http://www.w3.org/2000/svg">
<rect x="112" y="38" width="324" height="150" fill="#82D1F5"/>
<rect x="112" y="188" width="324" height="173" fill="#C5FFF5"/>
<rect x="703" y="361" width="324" height="173" fill="#C5FFF5"/>
<rect x="703" y="38" width="324" height="150" fill="#C5FFF5"/>
<path d="M703 532H1027V667L956.5 728L861 755.5L774 728L703 667V532Z" fill="#82D1F5"/>
<path d="M112 532H436V667L365.5 728L270 755.5L183 728L112 667V532Z" fill="#C5FFF5"/>
<rect x="703" y="188" width="324" height="173" fill="#82D1F5"/>
<rect x="112" y="359" width="324" height="173" fill="#82D1F5"/>
<path d="M15 15H529.286M100.714 186.429H215M100.714 357.857H215M100.714 529.286H215M443.571 15V586.429C443.571 631.894 425.51 675.498 393.361 707.647C361.212 739.796 317.609 757.857 272.143 757.857C226.677 757.857 183.074 739.796 150.925 707.647C118.775 675.498 100.714 631.894 100.714 586.429V15" stroke="#006CA9" stroke-width="30" stroke-linecap="round" stroke-linejoin="round"/>
<path d="M1201 15H1715.29M1286.71 186.429H1401M1286.71 357.857H1401M1286.71 529.286H1401M1629.57 15V586.429C1629.57 631.894 1611.51 675.498 1579.36 707.647C1547.21 739.796 1503.61 757.857 1458.14 757.857C1412.68 757.857 1369.07 739.796 1336.92 707.647C1304.78 675.498 1286.71 631.894 1286.71 586.429V15" stroke="#006CA9" stroke-width="30" stroke-linecap="round" stroke-linejoin="round"/>
<path d="M608 15H1122.29M693.714 186.429H808M693.714 357.857H808M693.714 529.286H808M1036.57 15V586.429C1036.57 631.894 1018.51 675.498 986.361 707.647C954.212 739.796 910.609 757.857 865.143 757.857C819.677 757.857 776.074 739.796 743.925 707.647C711.775 675.498 693.714 631.894 693.714 586.429V15" stroke="#006CA9" stroke-width="30" stroke-linecap="round" stroke-linejoin="round"/>
</svg>
