<svg width="3728" height="3744" viewBox="0 0 3728 3744" fill="none" xmlns="http://www.w3.org/2000/svg">
<rect x="182" y="258" width="324" height="150" fill="#82D1F5"/>
<rect x="182" y="408" width="324" height="173" fill="#C5FFF5"/>
<rect x="773" y="581" width="324" height="173" fill="#C5FFF5"/>
<rect x="773" y="258" width="324" height="150" fill="#C5FFF5"/>
<path d="M773 752H1097V887L1026.5 948L931 975.5L844 948L773 887V752Z" fill="#82D1F5"/>
<path d="M182 752H506V887L435.5 948L340 975.5L253 948L182 887V752Z" fill="#C5FFF5"/>
<rect x="773" y="408" width="324" height="173" fill="#82D1F5"/>
<rect x="182" y="579" width="324" height="173" fill="#82D1F5"/>
<path d="M85 235H599.286M170.714 406.429H285M170.714 577.857H285M170.714 749.286H285M513.571 235V806.429C513.571 851.894 495.51 895.498 463.361 927.647C431.212 959.796 387.609 977.857 342.143 977.857C296.677 977.857 253.074 959.796 220.925 927.647C188.775 895.498 170.714 851.894 170.714 806.429V235" stroke="#006CA9" stroke-width="30" stroke-linecap="round" stroke-linejoin="round"/>
<path d="M1271 235H1785.29M1356.71 406.429H1471M1356.71 577.857H1471M1356.71 749.286H1471M1699.57 235V806.429C1699.57 851.894 1681.51 895.498 1649.36 927.647C1617.21 959.796 1573.61 977.857 1528.14 977.857C1482.68 977.857 1439.07 959.796 1406.92 927.647C1374.78 895.498 1356.71 851.894 1356.71 806.429V235" stroke="#006CA9" stroke-width="30" stroke-linecap="round" stroke-linejoin="round"/>
<path d="M678 235H1192.29M763.714 406.429H878M763.714 577.857H878M763.714 749.286H878M1106.57 235V806.429C1106.57 851.894 1088.51 895.498 1056.36 927.647C1024.21 959.796 980.609 977.857 935.143 977.857C889.677 977.857 846.074 959.796 813.925 927.647C781.775 895.498 763.714 851.894 763.714 806.429V235" stroke="#006CA9" stroke-width="30" stroke-linecap="round" stroke-linejoin="round"/>
<path d="M337.722 356.278C334.265 356.278 331.128 355.627 328.311 354.325C325.494 353 323.257 351.094 321.599 348.608C319.942 346.098 319.114 343.068 319.114 339.517C319.114 336.392 319.729 333.859 320.96 331.918C322.191 329.953 323.837 328.414 325.896 327.301C327.956 326.188 330.229 325.36 332.714 324.815C335.224 324.247 337.745 323.797 340.278 323.466C343.593 323.04 346.28 322.72 348.339 322.507C350.423 322.27 351.938 321.88 352.885 321.335C353.856 320.791 354.341 319.844 354.341 318.494V318.21C354.341 314.706 353.382 311.984 351.464 310.043C349.571 308.101 346.694 307.131 342.835 307.131C338.834 307.131 335.697 308.007 333.425 309.759C331.152 311.51 329.554 313.381 328.631 315.369L320.676 312.528C322.097 309.214 323.991 306.634 326.358 304.787C328.749 302.917 331.353 301.615 334.17 300.881C337.011 300.123 339.805 299.744 342.551 299.744C344.303 299.744 346.315 299.957 348.588 300.384C350.884 300.786 353.098 301.626 355.229 302.905C357.383 304.183 359.17 306.113 360.591 308.693C362.011 311.274 362.722 314.73 362.722 319.062V355H354.341V347.614H353.915C353.347 348.797 352.4 350.064 351.074 351.413C349.748 352.763 347.984 353.911 345.783 354.858C343.581 355.805 340.894 356.278 337.722 356.278ZM339 348.75C342.314 348.75 345.108 348.099 347.381 346.797C349.677 345.495 351.405 343.814 352.565 341.754C353.749 339.695 354.341 337.528 354.341 335.256V327.585C353.986 328.011 353.205 328.402 351.997 328.757C350.813 329.089 349.44 329.384 347.878 329.645C346.339 329.882 344.836 330.095 343.368 330.284C341.924 330.45 340.752 330.592 339.852 330.71C337.674 330.994 335.638 331.456 333.744 332.095C331.874 332.711 330.359 333.646 329.199 334.901C328.063 336.132 327.494 337.812 327.494 339.943C327.494 342.855 328.571 345.057 330.726 346.548C332.904 348.016 335.662 348.75 339 348.75Z" fill="#006CA9"/>
<path d="M337.722 703.278C334.265 703.278 331.128 702.627 328.311 701.325C325.494 700 323.257 698.094 321.599 695.608C319.942 693.098 319.114 690.068 319.114 686.517C319.114 683.392 319.729 680.859 320.96 678.918C322.191 676.953 323.837 675.414 325.896 674.301C327.956 673.188 330.229 672.36 332.714 671.815C335.224 671.247 337.745 670.797 340.278 670.466C343.593 670.04 346.28 669.72 348.339 669.507C350.423 669.27 351.938 668.88 352.885 668.335C353.856 667.791 354.341 666.844 354.341 665.494V665.21C354.341 661.706 353.382 658.984 351.464 657.043C349.571 655.101 346.694 654.131 342.835 654.131C338.834 654.131 335.697 655.007 333.425 656.759C331.152 658.51 329.554 660.381 328.631 662.369L320.676 659.528C322.097 656.214 323.991 653.634 326.358 651.787C328.749 649.917 331.353 648.615 334.17 647.881C337.011 647.123 339.805 646.744 342.551 646.744C344.303 646.744 346.315 646.957 348.588 647.384C350.884 647.786 353.098 648.626 355.229 649.905C357.383 651.183 359.17 653.113 360.591 655.693C362.011 658.274 362.722 661.73 362.722 666.062V702H354.341V694.614H353.915C353.347 695.797 352.4 697.064 351.074 698.413C349.748 699.763 347.984 700.911 345.783 701.858C343.581 702.805 340.894 703.278 337.722 703.278ZM339 695.75C342.314 695.75 345.108 695.099 347.381 693.797C349.677 692.495 351.405 690.814 352.565 688.754C353.749 686.695 354.341 684.528 354.341 682.256V674.585C353.986 675.011 353.205 675.402 351.997 675.757C350.813 676.089 349.44 676.384 347.878 676.645C346.339 676.882 344.836 677.095 343.368 677.284C341.924 677.45 340.752 677.592 339.852 677.71C337.674 677.994 335.638 678.456 333.744 679.095C331.874 679.711 330.359 680.646 329.199 681.901C328.063 683.132 327.494 684.812 327.494 686.943C327.494 689.855 328.571 692.057 330.726 693.548C332.904 695.016 335.662 695.75 339 695.75Z" fill="#006CA9"/>
<path d="M930.722 532.278C927.265 532.278 924.128 531.627 921.311 530.325C918.494 529 916.257 527.094 914.599 524.608C912.942 522.098 912.114 519.068 912.114 515.517C912.114 512.392 912.729 509.859 913.96 507.918C915.191 505.953 916.837 504.414 918.896 503.301C920.956 502.188 923.229 501.36 925.714 500.815C928.224 500.247 930.745 499.797 933.278 499.466C936.593 499.04 939.28 498.72 941.339 498.507C943.423 498.27 944.938 497.88 945.885 497.335C946.856 496.791 947.341 495.844 947.341 494.494V494.21C947.341 490.706 946.382 487.984 944.464 486.043C942.571 484.101 939.694 483.131 935.835 483.131C931.834 483.131 928.697 484.007 926.425 485.759C924.152 487.51 922.554 489.381 921.631 491.369L913.676 488.528C915.097 485.214 916.991 482.634 919.358 480.787C921.749 478.917 924.353 477.615 927.17 476.881C930.011 476.123 932.805 475.744 935.551 475.744C937.303 475.744 939.315 475.957 941.588 476.384C943.884 476.786 946.098 477.626 948.229 478.905C950.383 480.183 952.17 482.113 953.591 484.693C955.011 487.274 955.722 490.73 955.722 495.062V531H947.341V523.614H946.915C946.347 524.797 945.4 526.064 944.074 527.413C942.748 528.763 940.984 529.911 938.783 530.858C936.581 531.805 933.894 532.278 930.722 532.278ZM932 524.75C935.314 524.75 938.108 524.099 940.381 522.797C942.677 521.495 944.405 519.814 945.565 517.754C946.749 515.695 947.341 513.528 947.341 511.256V503.585C946.986 504.011 946.205 504.402 944.997 504.757C943.813 505.089 942.44 505.384 940.878 505.645C939.339 505.882 937.836 506.095 936.368 506.284C934.924 506.45 933.752 506.592 932.852 506.71C930.674 506.994 928.638 507.456 926.744 508.095C924.874 508.711 923.359 509.646 922.199 510.901C921.063 512.132 920.494 513.812 920.494 515.943C920.494 518.855 921.571 521.057 923.726 522.548C925.904 524.016 928.662 524.75 932 524.75Z" fill="#006CA9"/>
<path d="M930.722 878.278C927.265 878.278 924.128 877.627 921.311 876.325C918.494 875 916.257 873.094 914.599 870.608C912.942 868.098 912.114 865.068 912.114 861.517C912.114 858.392 912.729 855.859 913.96 853.918C915.191 851.953 916.837 850.414 918.896 849.301C920.956 848.188 923.229 847.36 925.714 846.815C928.224 846.247 930.745 845.797 933.278 845.466C936.593 845.04 939.28 844.72 941.339 844.507C943.423 844.27 944.938 843.88 945.885 843.335C946.856 842.791 947.341 841.844 947.341 840.494V840.21C947.341 836.706 946.382 833.984 944.464 832.043C942.571 830.101 939.694 829.131 935.835 829.131C931.834 829.131 928.697 830.007 926.425 831.759C924.152 833.51 922.554 835.381 921.631 837.369L913.676 834.528C915.097 831.214 916.991 828.634 919.358 826.787C921.749 824.917 924.353 823.615 927.17 822.881C930.011 822.123 932.805 821.744 935.551 821.744C937.303 821.744 939.315 821.957 941.588 822.384C943.884 822.786 946.098 823.626 948.229 824.905C950.383 826.183 952.17 828.113 953.591 830.693C955.011 833.274 955.722 836.73 955.722 841.062V877H947.341V869.614H946.915C946.347 870.797 945.4 872.064 944.074 873.413C942.748 874.763 940.984 875.911 938.783 876.858C936.581 877.805 933.894 878.278 930.722 878.278ZM932 870.75C935.314 870.75 938.108 870.099 940.381 868.797C942.677 867.495 944.405 865.814 945.565 863.754C946.749 861.695 947.341 859.528 947.341 857.256V849.585C946.986 850.011 946.205 850.402 944.997 850.757C943.813 851.089 942.44 851.384 940.878 851.645C939.339 851.882 937.836 852.095 936.368 852.284C934.924 852.45 933.752 852.592 932.852 852.71C930.674 852.994 928.638 853.456 926.744 854.095C924.874 854.711 923.359 855.646 922.199 856.901C921.063 858.132 920.494 859.812 920.494 861.943C920.494 864.855 921.571 867.057 923.726 868.548C925.904 870.016 928.662 870.75 932 870.75Z" fill="#006CA9"/>
<path d="M322.807 531V458.273H331.188V485.119H331.898C332.513 484.172 333.366 482.965 334.455 481.497C335.567 480.006 337.153 478.68 339.213 477.52C341.296 476.336 344.114 475.744 347.665 475.744C352.258 475.744 356.306 476.893 359.81 479.189C363.313 481.485 366.048 484.741 368.013 488.955C369.978 493.169 370.96 498.14 370.96 503.869C370.96 509.646 369.978 514.653 368.013 518.891C366.048 523.105 363.325 526.372 359.845 528.692C356.365 530.988 352.352 532.136 347.807 532.136C344.303 532.136 341.498 531.556 339.391 530.396C337.284 529.213 335.662 527.875 334.526 526.384C333.389 524.868 332.513 523.614 331.898 522.619H330.903V531H322.807ZM331.045 503.727C331.045 507.847 331.649 511.481 332.857 514.629C334.064 517.754 335.828 520.205 338.148 521.98C340.468 523.732 343.309 524.608 346.67 524.608C350.174 524.608 353.098 523.685 355.442 521.838C357.809 519.968 359.585 517.458 360.768 514.31C361.976 511.137 362.58 507.61 362.58 503.727C362.58 499.892 361.988 496.436 360.804 493.358C359.644 490.257 357.88 487.806 355.513 486.007C353.169 484.184 350.222 483.273 346.67 483.273C343.261 483.273 340.397 484.137 338.077 485.865C335.757 487.57 334.005 489.961 332.821 493.038C331.637 496.092 331.045 499.655 331.045 503.727Z" fill="#006CA9"/>
<path d="M322.807 877V804.273H331.188V831.119H331.898C332.513 830.172 333.366 828.965 334.455 827.497C335.567 826.006 337.153 824.68 339.213 823.52C341.296 822.336 344.114 821.744 347.665 821.744C352.258 821.744 356.306 822.893 359.81 825.189C363.313 827.485 366.048 830.741 368.013 834.955C369.978 839.169 370.96 844.14 370.96 849.869C370.96 855.646 369.978 860.653 368.013 864.891C366.048 869.105 363.325 872.372 359.845 874.692C356.365 876.988 352.352 878.136 347.807 878.136C344.303 878.136 341.498 877.556 339.391 876.396C337.284 875.213 335.662 873.875 334.526 872.384C333.389 870.868 332.513 869.614 331.898 868.619H330.903V877H322.807ZM331.045 849.727C331.045 853.847 331.649 857.481 332.857 860.629C334.064 863.754 335.828 866.205 338.148 867.98C340.468 869.732 343.309 870.608 346.67 870.608C350.174 870.608 353.098 869.685 355.442 867.838C357.809 865.968 359.585 863.458 360.768 860.31C361.976 857.137 362.58 853.61 362.58 849.727C362.58 845.892 361.988 842.436 360.804 839.358C359.644 836.257 357.88 833.806 355.513 832.007C353.169 830.184 350.222 829.273 346.67 829.273C343.261 829.273 340.397 830.137 338.077 831.865C335.757 833.57 334.005 835.961 332.821 839.038C331.637 842.092 331.045 845.655 331.045 849.727Z" fill="#006CA9"/>
<path d="M912.807 355V282.273H921.188V309.119H921.898C922.513 308.172 923.366 306.965 924.455 305.497C925.567 304.006 927.153 302.68 929.213 301.52C931.296 300.336 934.114 299.744 937.665 299.744C942.258 299.744 946.306 300.893 949.81 303.189C953.313 305.485 956.048 308.741 958.013 312.955C959.978 317.169 960.96 322.14 960.96 327.869C960.96 333.646 959.978 338.653 958.013 342.891C956.048 347.105 953.325 350.372 949.845 352.692C946.365 354.988 942.352 356.136 937.807 356.136C934.303 356.136 931.498 355.556 929.391 354.396C927.284 353.213 925.662 351.875 924.526 350.384C923.389 348.868 922.513 347.614 921.898 346.619H920.903V355H912.807ZM921.045 327.727C921.045 331.847 921.649 335.481 922.857 338.629C924.064 341.754 925.828 344.205 928.148 345.98C930.468 347.732 933.309 348.608 936.67 348.608C940.174 348.608 943.098 347.685 945.442 345.838C947.809 343.968 949.585 341.458 950.768 338.31C951.976 335.137 952.58 331.61 952.58 327.727C952.58 323.892 951.988 320.436 950.804 317.358C949.644 314.257 947.88 311.806 945.513 310.007C943.169 308.184 940.222 307.273 936.67 307.273C933.261 307.273 930.397 308.137 928.077 309.865C925.757 311.57 924.005 313.961 922.821 317.038C921.637 320.092 921.045 323.655 921.045 327.727Z" fill="#006CA9"/>
<path d="M912.807 702V629.273H921.188V656.119H921.898C922.513 655.172 923.366 653.965 924.455 652.497C925.567 651.006 927.153 649.68 929.213 648.52C931.296 647.336 934.114 646.744 937.665 646.744C942.258 646.744 946.306 647.893 949.81 650.189C953.313 652.485 956.048 655.741 958.013 659.955C959.978 664.169 960.96 669.14 960.96 674.869C960.96 680.646 959.978 685.653 958.013 689.891C956.048 694.105 953.325 697.372 949.845 699.692C946.365 701.988 942.352 703.136 937.807 703.136C934.303 703.136 931.498 702.556 929.391 701.396C927.284 700.213 925.662 698.875 924.526 697.384C923.389 695.868 922.513 694.614 921.898 693.619H920.903V702H912.807ZM921.045 674.727C921.045 678.847 921.649 682.481 922.857 685.629C924.064 688.754 925.828 691.205 928.148 692.98C930.468 694.732 933.309 695.608 936.67 695.608C940.174 695.608 943.098 694.685 945.442 692.838C947.809 690.968 949.585 688.458 950.768 685.31C951.976 682.137 952.58 678.61 952.58 674.727C952.58 670.892 951.988 667.436 950.804 664.358C949.644 661.257 947.88 658.806 945.513 657.007C943.169 655.184 940.222 654.273 936.67 654.273C933.261 654.273 930.397 655.137 928.077 656.865C925.757 658.57 924.005 660.961 922.821 664.038C921.637 667.092 921.045 670.655 921.045 674.727Z" fill="#006CA9"/>
<path d="M1507.91 458.273V483.273H1500.1V458.273H1507.91ZM1526.1 458.273V483.273H1518.28V458.273H1526.1ZM1548.25 458.273V483.273H1540.43V458.273H1548.25ZM1566.43 458.273V483.273H1558.62V458.273H1566.43Z" fill="#006CA9"/>
<rect x="182" y="1325" width="324" height="173" fill="#C5FFF5"/>
<rect x="773" y="1498" width="324" height="173" fill="#C5FFF5"/>
<rect x="773" y="1175" width="324" height="150" fill="#C5FFF5"/>
<path d="M773 1669H1097V1804L1026.5 1865L931 1892.5L844 1865L773 1804V1669Z" fill="#82D1F5"/>
<path d="M1366 1671H1690V1806L1619.5 1867L1524 1894.5L1437 1867L1366 1806V1671Z" fill="#82D1F5"/>
<path d="M182 1669H506V1804L435.5 1865L340 1892.5L253 1865L182 1804V1669Z" fill="#C5FFF5"/>
<rect x="773" y="1325" width="324" height="173" fill="#82D1F5"/>
<rect x="182" y="1496" width="324" height="173" fill="#82D1F5"/>
<path d="M85 1152H599.286M170.714 1323.43H285M170.714 1494.86H285M170.714 1666.29H285M513.571 1152V1723.43C513.571 1768.89 495.51 1812.5 463.361 1844.65C431.212 1876.8 387.609 1894.86 342.143 1894.86C296.677 1894.86 253.074 1876.8 220.925 1844.65C188.775 1812.5 170.714 1768.89 170.714 1723.43V1152" stroke="#006CA9" stroke-width="30" stroke-linecap="round" stroke-linejoin="round"/>
<path d="M1271 1152H1785.29M1356.71 1323.43H1471M1356.71 1494.86H1471M1356.71 1666.29H1471M1699.57 1152V1723.43C1699.57 1768.89 1681.51 1812.5 1649.36 1844.65C1617.21 1876.8 1573.61 1894.86 1528.14 1894.86C1482.68 1894.86 1439.07 1876.8 1406.92 1844.65C1374.78 1812.5 1356.71 1768.89 1356.71 1723.43V1152" stroke="#006CA9" stroke-width="30" stroke-linecap="round" stroke-linejoin="round"/>
<path d="M678 1152H1192.29M763.714 1323.43H878M763.714 1494.86H878M763.714 1666.29H878M1106.57 1152V1723.43C1106.57 1768.89 1088.51 1812.5 1056.36 1844.65C1024.21 1876.8 980.609 1894.86 935.143 1894.86C889.677 1894.86 846.074 1876.8 813.925 1844.65C781.775 1812.5 763.714 1768.89 763.714 1723.43V1152" stroke="#006CA9" stroke-width="30" stroke-linecap="round" stroke-linejoin="round"/>
<path d="M96.7898 111.773V20.8636H117.812V27.8239H104.744V104.812H117.812V111.773H96.7898ZM136.145 24.2727V49.2727H128.333V24.2727H136.145ZM154.327 24.2727V49.2727H146.515V24.2727H154.327ZM185.284 98.2784C181.828 98.2784 178.691 97.6274 175.874 96.3253C173.056 94.9995 170.819 93.0938 169.162 90.608C167.505 88.0985 166.676 85.0682 166.676 81.517C166.676 78.392 167.292 75.8589 168.523 73.9176C169.754 71.9527 171.399 70.4138 173.459 69.3011C175.518 68.1884 177.791 67.3598 180.277 66.8153C182.786 66.2472 185.308 65.7973 187.841 65.4659C191.155 65.0398 193.842 64.7202 195.902 64.5071C197.985 64.2704 199.5 63.8797 200.447 63.3352C201.418 62.7907 201.903 61.8437 201.903 60.4943V60.2102C201.903 56.7064 200.945 53.9839 199.027 52.0426C197.133 50.1013 194.257 49.1307 190.398 49.1307C186.397 49.1307 183.26 50.0066 180.987 51.7585C178.714 53.5104 177.116 55.3807 176.193 57.3693L168.239 54.5284C169.659 51.214 171.553 48.6335 173.92 46.7869C176.312 44.9167 178.916 43.6146 181.733 42.8807C184.574 42.1231 187.367 41.7443 190.114 41.7443C191.866 41.7443 193.878 41.9574 196.151 42.3835C198.447 42.786 200.661 43.6264 202.791 44.9048C204.946 46.1832 206.733 48.1127 208.153 50.6932C209.574 53.2737 210.284 56.7301 210.284 61.0625V97H201.903V89.6136H201.477C200.909 90.7973 199.962 92.0639 198.636 93.4134C197.311 94.7628 195.547 95.911 193.345 96.858C191.143 97.8049 188.456 98.2784 185.284 98.2784ZM186.562 90.75C189.877 90.75 192.67 90.099 194.943 88.7969C197.24 87.4948 198.968 85.8139 200.128 83.7543C201.312 81.6946 201.903 79.5284 201.903 77.2557V69.5852C201.548 70.0114 200.767 70.402 199.56 70.7571C198.376 71.0885 197.003 71.3845 195.44 71.6449C193.902 71.8816 192.398 72.0947 190.93 72.2841C189.486 72.4498 188.314 72.5919 187.415 72.7102C185.237 72.9943 183.201 73.456 181.307 74.0952C179.437 74.7107 177.921 75.6458 176.761 76.9006C175.625 78.1316 175.057 79.8125 175.057 81.9432C175.057 84.8551 176.134 87.0568 178.288 88.5483C180.466 90.0161 183.224 90.75 186.562 90.75ZM226.717 97V24.2727H235.098V51.1193H235.808C236.423 50.1723 237.276 48.965 238.365 47.4972C239.477 46.0057 241.064 44.6799 243.123 43.5199C245.207 42.3362 248.024 41.7443 251.575 41.7443C256.168 41.7443 260.216 42.8925 263.72 45.1889C267.224 47.4853 269.958 50.7405 271.923 54.9545C273.888 59.1686 274.87 64.1402 274.87 69.8693C274.87 75.6458 273.888 80.6529 271.923 84.8906C269.958 89.1046 267.235 92.3717 263.755 94.6918C260.275 96.9882 256.262 98.1364 251.717 98.1364C248.213 98.1364 245.408 97.5563 243.301 96.3963C241.194 95.2126 239.572 93.875 238.436 92.3835C237.299 90.8684 236.423 89.6136 235.808 88.6193H234.814V97H226.717ZM234.956 69.7273C234.956 73.8466 235.559 77.4806 236.767 80.6293C237.974 83.7543 239.738 86.2045 242.058 87.9801C244.378 89.732 247.219 90.608 250.581 90.608C254.084 90.608 257.008 89.6847 259.352 87.8381C261.719 85.9678 263.495 83.4583 264.679 80.3097C265.886 77.1373 266.49 73.6098 266.49 69.7273C266.49 65.892 265.898 62.4356 264.714 59.358C263.554 56.2566 261.79 53.8063 259.423 52.0071C257.079 50.1842 254.132 49.2727 250.581 49.2727C247.172 49.2727 244.307 50.1368 241.987 51.8651C239.667 53.5696 237.915 55.9607 236.731 59.0384C235.547 62.0923 234.956 65.6553 234.956 69.7273ZM303.741 98.2784C300.285 98.2784 297.148 97.6274 294.331 96.3253C291.513 94.9995 289.276 93.0938 287.619 90.608C285.962 88.0985 285.133 85.0682 285.133 81.517C285.133 78.392 285.749 75.8589 286.98 73.9176C288.211 71.9527 289.856 70.4138 291.916 69.3011C293.975 68.1884 296.248 67.3598 298.734 66.8153C301.243 66.2472 303.765 65.7973 306.298 65.4659C309.612 65.0398 312.299 64.7202 314.359 64.5071C316.442 64.2704 317.958 63.8797 318.904 63.3352C319.875 62.7907 320.36 61.8437 320.36 60.4943V60.2102C320.36 56.7064 319.402 53.9839 317.484 52.0426C315.59 50.1013 312.714 49.1307 308.855 49.1307C304.854 49.1307 301.717 50.0066 299.444 51.7585C297.172 53.5104 295.574 55.3807 294.65 57.3693L286.696 54.5284C288.116 51.214 290.01 48.6335 292.377 46.7869C294.769 44.9167 297.373 43.6146 300.19 42.8807C303.031 42.1231 305.824 41.7443 308.571 41.7443C310.323 41.7443 312.335 41.9574 314.608 42.3835C316.904 42.786 319.118 43.6264 321.248 44.9048C323.403 46.1832 325.19 48.1127 326.61 50.6932C328.031 53.2737 328.741 56.7301 328.741 61.0625V97H320.36V89.6136H319.934C319.366 90.7973 318.419 92.0639 317.093 93.4134C315.768 94.7628 314.004 95.911 311.802 96.858C309.6 97.8049 306.913 98.2784 303.741 98.2784ZM305.02 90.75C308.334 90.75 311.127 90.099 313.4 88.7969C315.697 87.4948 317.425 85.8139 318.585 83.7543C319.769 81.6946 320.36 79.5284 320.36 77.2557V69.5852C320.005 70.0114 319.224 70.402 318.017 70.7571C316.833 71.0885 315.46 71.3845 313.897 71.6449C312.359 71.8816 310.855 72.0947 309.387 72.2841C307.943 72.4498 306.771 72.5919 305.872 72.7102C303.694 72.9943 301.658 73.456 299.764 74.0952C297.894 74.7107 296.378 75.6458 295.218 76.9006C294.082 78.1316 293.514 79.8125 293.514 81.9432C293.514 84.8551 294.591 87.0568 296.745 88.5483C298.923 90.0161 301.681 90.75 305.02 90.75ZM345.174 97V24.2727H353.555V51.1193H354.265C354.88 50.1723 355.733 48.965 356.822 47.4972C357.934 46.0057 359.521 44.6799 361.58 43.5199C363.664 42.3362 366.481 41.7443 370.032 41.7443C374.625 41.7443 378.673 42.8925 382.177 45.1889C385.681 47.4853 388.415 50.7405 390.38 54.9545C392.345 59.1686 393.327 64.1402 393.327 69.8693C393.327 75.6458 392.345 80.6529 390.38 84.8906C388.415 89.1046 385.692 92.3717 382.212 94.6918C378.732 96.9882 374.719 98.1364 370.174 98.1364C366.67 98.1364 363.865 97.5563 361.758 96.3963C359.651 95.2126 358.029 93.875 356.893 92.3835C355.756 90.8684 354.88 89.6136 354.265 88.6193H353.271V97H345.174ZM353.413 69.7273C353.413 73.8466 354.016 77.4806 355.224 80.6293C356.431 83.7543 358.195 86.2045 360.515 87.9801C362.835 89.732 365.676 90.608 369.038 90.608C372.541 90.608 375.465 89.6847 377.809 87.8381C380.176 85.9678 381.952 83.4583 383.136 80.3097C384.343 77.1373 384.947 73.6098 384.947 69.7273C384.947 65.892 384.355 62.4356 383.171 59.358C382.011 56.2566 380.247 53.8063 377.88 52.0071C375.536 50.1842 372.589 49.2727 369.038 49.2727C365.629 49.2727 362.764 50.1368 360.444 51.8651C358.124 53.5696 356.372 55.9607 355.188 59.0384C354.004 62.0923 353.413 65.6553 353.413 69.7273ZM413.391 24.2727V49.2727H405.579V24.2727H413.391ZM431.573 24.2727V49.2727H423.761V24.2727H431.573ZM450.776 87.0568L450.208 90.892C449.805 93.5909 449.19 96.4792 448.361 99.5568C447.556 102.634 446.716 105.535 445.84 108.257C444.964 110.98 444.242 113.146 443.674 114.756H437.282C437.589 113.241 437.992 111.24 438.489 108.754C438.986 106.268 439.483 103.487 439.98 100.409C440.501 97.3551 440.927 94.2301 441.259 91.0341L441.685 87.0568H450.776ZM501.673 24.2727V49.2727H493.86V24.2727H501.673ZM519.854 24.2727V49.2727H512.042V24.2727H519.854ZM535.897 97V24.2727H544.277V51.1193H544.988C545.603 50.1723 546.455 48.965 547.544 47.4972C548.657 46.0057 550.243 44.6799 552.303 43.5199C554.386 42.3362 557.203 41.7443 560.755 41.7443C565.347 41.7443 569.396 42.8925 572.9 45.1889C576.403 47.4853 579.138 50.7405 581.103 54.9545C583.068 59.1686 584.05 64.1402 584.05 69.8693C584.05 75.6458 583.068 80.6529 581.103 84.8906C579.138 89.1046 576.415 92.3717 572.935 94.6918C569.455 96.9882 565.442 98.1364 560.897 98.1364C557.393 98.1364 554.587 97.5563 552.48 96.3963C550.373 95.2126 548.752 93.875 547.615 92.3835C546.479 90.8684 545.603 89.6136 544.988 88.6193H543.993V97H535.897ZM544.135 69.7273C544.135 73.8466 544.739 77.4806 545.946 80.6293C547.154 83.7543 548.917 86.2045 551.238 87.9801C553.558 89.732 556.399 90.608 559.76 90.608C563.264 90.608 566.188 89.6847 568.532 87.8381C570.899 85.9678 572.675 83.4583 573.858 80.3097C575.066 77.1373 575.669 73.6098 575.669 69.7273C575.669 65.892 575.078 62.4356 573.894 59.358C572.734 56.2566 570.97 53.8063 568.603 52.0071C566.259 50.1842 563.311 49.2727 559.76 49.2727C556.351 49.2727 553.487 50.1368 551.167 51.8651C548.846 53.5696 547.095 55.9607 545.911 59.0384C544.727 62.0923 544.135 65.6553 544.135 69.7273ZM612.921 98.2784C609.464 98.2784 606.328 97.6274 603.51 96.3253C600.693 94.9995 598.456 93.0938 596.799 90.608C595.141 88.0985 594.313 85.0682 594.313 81.517C594.313 78.392 594.928 75.8589 596.159 73.9176C597.391 71.9527 599.036 70.4138 601.096 69.3011C603.155 68.1884 605.428 67.3598 607.914 66.8153C610.423 66.2472 612.944 65.7973 615.478 65.4659C618.792 65.0398 621.479 64.7202 623.539 64.5071C625.622 64.2704 627.137 63.8797 628.084 63.3352C629.055 62.7907 629.54 61.8437 629.54 60.4943V60.2102C629.54 56.7064 628.581 53.9839 626.664 52.0426C624.77 50.1013 621.893 49.1307 618.034 49.1307C614.033 49.1307 610.897 50.0066 608.624 51.7585C606.351 53.5104 604.753 55.3807 603.83 57.3693L595.875 54.5284C597.296 51.214 599.19 48.6335 601.557 46.7869C603.948 44.9167 606.552 43.6146 609.37 42.8807C612.211 42.1231 615.004 41.7443 617.75 41.7443C619.502 41.7443 621.515 41.9574 623.787 42.3835C626.084 42.786 628.297 43.6264 630.428 44.9048C632.582 46.1832 634.37 48.1127 635.79 50.6932C637.211 53.2737 637.921 56.7301 637.921 61.0625V97H629.54V89.6136H629.114C628.546 90.7973 627.599 92.0639 626.273 93.4134C624.947 94.7628 623.184 95.911 620.982 96.858C618.78 97.8049 616.093 98.2784 612.921 98.2784ZM614.199 90.75C617.514 90.75 620.307 90.099 622.58 88.7969C624.876 87.4948 626.605 85.8139 627.765 83.7543C628.948 81.6946 629.54 79.5284 629.54 77.2557V69.5852C629.185 70.0114 628.404 70.402 627.196 70.7571C626.013 71.0885 624.64 71.3845 623.077 71.6449C621.538 71.8816 620.035 72.0947 618.567 72.2841C617.123 72.4498 615.951 72.5919 615.051 72.7102C612.873 72.9943 610.837 73.456 608.944 74.0952C607.073 74.7107 605.558 75.6458 604.398 76.9006C603.262 78.1316 602.694 79.8125 602.694 81.9432C602.694 84.8551 603.771 87.0568 605.925 88.5483C608.103 90.0161 610.861 90.75 614.199 90.75ZM654.354 97V24.2727H662.734V51.1193H663.445C664.06 50.1723 664.912 48.965 666.001 47.4972C667.114 46.0057 668.7 44.6799 670.76 43.5199C672.843 42.3362 675.661 41.7443 679.212 41.7443C683.804 41.7443 687.853 42.8925 691.357 45.1889C694.86 47.4853 697.595 50.7405 699.56 54.9545C701.525 59.1686 702.507 64.1402 702.507 69.8693C702.507 75.6458 701.525 80.6529 699.56 84.8906C697.595 89.1046 694.872 92.3717 691.392 94.6918C687.912 96.9882 683.899 98.1364 679.354 98.1364C675.85 98.1364 673.045 97.5563 670.938 96.3963C668.83 95.2126 667.209 93.875 666.072 92.3835C664.936 90.8684 664.06 89.6136 663.445 88.6193H662.45V97H654.354ZM662.592 69.7273C662.592 73.8466 663.196 77.4806 664.403 80.6293C665.611 83.7543 667.375 86.2045 669.695 87.9801C672.015 89.732 674.856 90.608 678.217 90.608C681.721 90.608 684.645 89.6847 686.989 87.8381C689.356 85.9678 691.132 83.4583 692.315 80.3097C693.523 77.1373 694.126 73.6098 694.126 69.7273C694.126 65.892 693.535 62.4356 692.351 59.358C691.191 56.2566 689.427 53.8063 687.06 52.0071C684.716 50.1842 681.768 49.2727 678.217 49.2727C674.808 49.2727 671.944 50.1368 669.624 51.8651C667.304 53.5696 665.552 55.9607 664.368 59.0384C663.184 62.0923 662.592 65.6553 662.592 69.7273ZM731.378 98.2784C727.921 98.2784 724.785 97.6274 721.967 96.3253C719.15 94.9995 716.913 93.0938 715.256 90.608C713.598 88.0985 712.77 85.0682 712.77 81.517C712.77 78.392 713.385 75.8589 714.616 73.9176C715.848 71.9527 717.493 70.4138 719.553 69.3011C721.612 68.1884 723.885 67.3598 726.371 66.8153C728.88 66.2472 731.402 65.7973 733.935 65.4659C737.249 65.0398 739.936 64.7202 741.996 64.5071C744.079 64.2704 745.594 63.8797 746.541 63.3352C747.512 62.7907 747.997 61.8437 747.997 60.4943V60.2102C747.997 56.7064 747.038 53.9839 745.121 52.0426C743.227 50.1013 740.35 49.1307 736.491 49.1307C732.491 49.1307 729.354 50.0066 727.081 51.7585C724.808 53.5104 723.21 55.3807 722.287 57.3693L714.332 54.5284C715.753 51.214 717.647 48.6335 720.014 46.7869C722.405 44.9167 725.009 43.6146 727.827 42.8807C730.668 42.1231 733.461 41.7443 736.207 41.7443C737.959 41.7443 739.972 41.9574 742.244 42.3835C744.541 42.786 746.754 43.6264 748.885 44.9048C751.039 46.1832 752.827 48.1127 754.247 50.6932C755.668 53.2737 756.378 56.7301 756.378 61.0625V97H747.997V89.6136H747.571C747.003 90.7973 746.056 92.0639 744.73 93.4134C743.404 94.7628 741.641 95.911 739.439 96.858C737.237 97.8049 734.55 98.2784 731.378 98.2784ZM732.656 90.75C735.971 90.75 738.764 90.099 741.037 88.7969C743.333 87.4948 745.062 85.8139 746.222 83.7543C747.405 81.6946 747.997 79.5284 747.997 77.2557V69.5852C747.642 70.0114 746.861 70.402 745.653 70.7571C744.47 71.0885 743.097 71.3845 741.534 71.6449C739.995 71.8816 738.492 72.0947 737.024 72.2841C735.58 72.4498 734.408 72.5919 733.509 72.7102C731.33 72.9943 729.295 73.456 727.401 74.0952C725.53 74.7107 724.015 75.6458 722.855 76.9006C721.719 78.1316 721.151 79.8125 721.151 81.9432C721.151 84.8551 722.228 87.0568 724.382 88.5483C726.56 90.0161 729.318 90.75 732.656 90.75ZM778.919 24.2727V49.2727H771.106V24.2727H778.919ZM797.1 24.2727V49.2727H789.288V24.2727H797.1ZM816.303 87.0568L815.735 90.892C815.333 93.5909 814.717 96.4792 813.888 99.5568C813.084 102.634 812.243 105.535 811.367 108.257C810.491 110.98 809.769 113.146 809.201 114.756H802.809C803.117 113.241 803.519 111.24 804.016 108.754C804.513 106.268 805.011 103.487 805.508 100.409C806.029 97.3551 806.455 94.2301 806.786 91.0341L807.212 87.0568H816.303ZM867.2 24.2727V49.2727H859.387V24.2727H867.2ZM885.382 24.2727V49.2727H877.569V24.2727H885.382ZM907.532 24.2727V49.2727H899.719V24.2727H907.532ZM925.714 24.2727V49.2727H917.901V24.2727H925.714ZM957.381 20.8636V111.773H936.358V104.812H949.426V27.8239H936.358V20.8636H957.381Z" fill="#006CA9"/>
<path d="M38.4105 333.598C32.3026 333.574 27.0469 332.071 22.6435 329.088C18.2637 326.105 14.8902 321.785 12.5227 316.126C10.179 310.468 9.01894 303.662 9.04261 295.707C9.04261 287.777 10.2145 281.018 12.5582 275.43C14.9257 269.843 18.2992 265.594 22.679 262.682C27.0824 259.746 32.3262 258.278 38.4105 258.278C44.4948 258.278 49.7268 259.746 54.1065 262.682C58.5099 265.617 61.8954 269.879 64.2628 275.466C66.6302 281.029 67.8021 287.777 67.7784 295.707C67.7784 303.686 66.5947 310.504 64.2273 316.162C61.8835 321.82 58.5218 326.141 54.142 329.124C49.7623 332.107 44.5185 333.598 38.4105 333.598ZM38.4105 320.849C42.5772 320.849 45.9034 318.754 48.3892 314.564C50.875 310.374 52.1061 304.088 52.0824 295.707C52.0824 290.191 51.5142 285.598 50.3778 281.929C49.2652 278.259 47.679 275.501 45.6193 273.655C43.5833 271.808 41.1804 270.885 38.4105 270.885C34.2675 270.885 30.9531 272.956 28.4673 277.099C25.9815 281.242 24.7268 287.445 24.7031 295.707C24.7031 301.295 25.2595 305.958 26.3722 309.699C27.5085 313.416 29.1065 316.209 31.1662 318.08C33.2259 319.926 35.6406 320.849 38.4105 320.849Z" fill="#737370"/>
<path d="M42.5355 1176.27V1249H27.1591V1190.87H26.733L10.0781 1201.31V1187.67L28.0824 1176.27H42.5355Z" fill="#737370"/>
<rect x="182" y="2242" width="324" height="173" fill="#C5FFF5"/>
<rect x="773" y="2415" width="324" height="173" fill="#C5FFF5"/>
<rect x="182" y="2092" width="324" height="150" fill="#C5FFF5"/>
<path d="M773 2586H1097V2721L1026.5 2782L931 2809.5L844 2782L773 2721V2586Z" fill="#82D1F5"/>
<path d="M1366 2588H1690V2723L1619.5 2784L1524 2811.5L1437 2784L1366 2723V2588Z" fill="#82D1F5"/>
<path d="M182 2586H506V2721L435.5 2782L340 2809.5L253 2782L182 2721V2586Z" fill="#C5FFF5"/>
<rect x="773" y="2242" width="324" height="173" fill="#82D1F5"/>
<rect x="182" y="2413" width="324" height="173" fill="#82D1F5"/>
<path d="M85 2069H599.286M170.714 2240.43H285M170.714 2411.86H285M170.714 2583.29H285M513.571 2069V2640.43C513.571 2685.89 495.51 2729.5 463.361 2761.65C431.212 2793.8 387.609 2811.86 342.143 2811.86C296.677 2811.86 253.074 2793.8 220.925 2761.65C188.775 2729.5 170.714 2685.89 170.714 2640.43V2069" stroke="#006CA9" stroke-width="30" stroke-linecap="round" stroke-linejoin="round"/>
<path d="M1271 2069H1785.29M1356.71 2240.43H1471M1356.71 2411.86H1471M1356.71 2583.29H1471M1699.57 2069V2640.43C1699.57 2685.89 1681.51 2729.5 1649.36 2761.65C1617.21 2793.8 1573.61 2811.86 1528.14 2811.86C1482.68 2811.86 1439.07 2793.8 1406.92 2761.65C1374.78 2729.5 1356.71 2685.89 1356.71 2640.43V2069" stroke="#006CA9" stroke-width="30" stroke-linecap="round" stroke-linejoin="round"/>
<path d="M678 2069H1192.29M763.714 2240.43H878M763.714 2411.86H878M763.714 2583.29H878M1106.57 2069V2640.43C1106.57 2685.89 1088.51 2729.5 1056.36 2761.65C1024.21 2793.8 980.609 2811.86 935.143 2811.86C889.677 2811.86 846.074 2793.8 813.925 2761.65C781.775 2729.5 763.714 2685.89 763.714 2640.43V2069" stroke="#006CA9" stroke-width="30" stroke-linecap="round" stroke-linejoin="round"/>
<path d="M10.8949 2166V2154.92L36.7827 2130.95C38.9844 2128.82 40.831 2126.9 42.3224 2125.2C43.8376 2123.49 44.9858 2121.82 45.767 2120.19C46.5483 2118.53 46.9389 2116.75 46.9389 2114.83C46.9389 2112.7 46.4536 2110.86 45.483 2109.32C44.5123 2107.76 43.1866 2106.57 41.5057 2105.74C39.8248 2104.88 37.919 2104.46 35.7884 2104.46C33.563 2104.46 31.6217 2104.91 29.9645 2105.81C28.3073 2106.71 27.0289 2108 26.1293 2109.68C25.2296 2111.36 24.7798 2113.36 24.7798 2115.68H10.1847C10.1847 2110.92 11.2618 2106.79 13.4162 2103.29C15.5705 2099.78 18.589 2097.07 22.4716 2095.15C26.3542 2093.24 30.8286 2092.28 35.8949 2092.28C41.1032 2092.28 45.6368 2093.2 49.4957 2095.05C53.3783 2096.87 56.3968 2099.4 58.5511 2102.65C60.7055 2105.89 61.7827 2109.61 61.7827 2113.8C61.7827 2116.54 61.2382 2119.26 60.1491 2121.93C59.0838 2124.61 57.178 2127.58 54.4318 2130.84C51.6856 2134.09 47.8149 2137.98 42.8196 2142.53L32.2017 2152.93V2153.43H62.7415V2166H10.8949Z" fill="#737370"/>
<rect x="182" y="3159" width="324" height="173" fill="#C5FFF5"/>
<rect x="773" y="3332" width="324" height="173" fill="#C5FFF5"/>
<rect x="182" y="3009" width="324" height="150" fill="#C5FFF5"/>
<path d="M773 3503H1097V3638L1026.5 3699L931 3726.5L844 3699L773 3638V3503Z" fill="#82D1F5"/>
<path d="M1366 3505H1690V3640L1619.5 3701L1524 3728.5L1437 3701L1366 3640V3505Z" fill="#82D1F5"/>
<path d="M182 3503H506V3638L435.5 3699L340 3726.5L253 3699L182 3638V3503Z" fill="#C5FFF5"/>
<rect x="1366" y="3332" width="324" height="173" fill="#82D1F5"/>
<rect x="182" y="3330" width="324" height="173" fill="#82D1F5"/>
<path d="M85 2986H599.286M170.714 3157.43H285M170.714 3328.86H285M170.714 3500.29H285M513.571 2986V3557.43C513.571 3602.89 495.51 3646.5 463.361 3678.65C431.212 3710.8 387.609 3728.86 342.143 3728.86C296.677 3728.86 253.074 3710.8 220.925 3678.65C188.775 3646.5 170.714 3602.89 170.714 3557.43V2986" stroke="#006CA9" stroke-width="30" stroke-linecap="round" stroke-linejoin="round"/>
<path d="M1271 2986H1785.29M1356.71 3157.43H1471M1356.71 3328.86H1471M1356.71 3500.29H1471M1699.57 2986V3557.43C1699.57 3602.89 1681.51 3646.5 1649.36 3678.65C1617.21 3710.8 1573.61 3728.86 1528.14 3728.86C1482.68 3728.86 1439.07 3710.8 1406.92 3678.65C1374.78 3646.5 1356.71 3602.89 1356.71 3557.43V2986" stroke="#006CA9" stroke-width="30" stroke-linecap="round" stroke-linejoin="round"/>
<path d="M678 2986H1192.29M763.714 3157.43H878M763.714 3328.86H878M763.714 3500.29H878M1106.57 2986V3557.43C1106.57 3602.89 1088.51 3646.5 1056.36 3678.65C1024.21 3710.8 980.609 3728.86 935.143 3728.86C889.677 3728.86 846.074 3710.8 813.925 3678.65C781.775 3646.5 763.714 3602.89 763.714 3557.43V2986" stroke="#006CA9" stroke-width="30" stroke-linecap="round" stroke-linejoin="round"/>
<path d="M37.777 3083.99C32.474 3083.99 27.7509 3083.08 23.608 3081.26C19.4886 3079.41 16.2334 3076.88 13.8423 3073.66C11.4749 3070.42 10.2557 3066.68 10.1847 3062.44H25.6676C25.7623 3064.21 26.3423 3065.78 27.4077 3067.13C28.4967 3068.45 29.9408 3069.48 31.7401 3070.22C33.5393 3070.95 35.5634 3071.32 37.8125 3071.32C40.1562 3071.32 42.2277 3070.9 44.027 3070.07C45.8262 3069.25 47.2348 3068.1 48.2528 3066.63C49.2708 3065.16 49.7798 3063.47 49.7798 3061.55C49.7798 3059.61 49.2353 3057.89 48.1463 3056.4C47.081 3054.89 45.5421 3053.7 43.5298 3052.85C41.5412 3052 39.1738 3051.57 36.4276 3051.57H29.6449V3040.28H36.4276C38.7476 3040.28 40.7955 3039.88 42.571 3039.07C44.3703 3038.27 45.767 3037.15 46.7614 3035.73C47.7557 3034.29 48.2528 3032.61 48.2528 3030.69C48.2528 3028.87 47.8149 3027.27 46.9389 3025.9C46.0866 3024.5 44.8793 3023.41 43.3168 3022.63C41.7779 3021.85 39.9787 3021.46 37.919 3021.46C35.8357 3021.46 33.9299 3021.84 32.2017 3022.6C30.4735 3023.33 29.0885 3024.38 28.0469 3025.76C27.0052 3027.13 26.4489 3028.74 26.3778 3030.59H11.6406C11.7116 3026.39 12.9072 3022.7 15.2273 3019.51C17.5473 3016.31 20.6723 3013.81 24.6023 3012.01C28.5559 3010.19 33.0185 3009.28 37.9901 3009.28C43.009 3009.28 47.4006 3010.19 51.1648 3012.01C54.929 3013.84 57.8527 3016.3 59.9361 3019.4C62.0431 3022.48 63.0848 3025.93 63.0611 3029.77C63.0848 3033.84 61.8182 3037.24 59.2614 3039.96C56.7282 3042.68 53.4257 3044.41 49.3537 3045.14V3045.71C54.7041 3046.4 58.776 3048.26 61.5696 3051.29C64.3868 3054.29 65.7836 3058.06 65.7599 3062.58C65.7836 3066.72 64.5881 3070.41 62.1733 3073.62C59.7822 3076.84 56.4796 3079.38 52.2656 3081.22C48.0516 3083.07 43.2221 3083.99 37.777 3083.99Z" fill="#737370"/>
<rect x="2700" y="408" width="324" height="173" fill="#C5FFF5"/>
<rect x="2700" y="581" width="324" height="173" fill="#C5FFF5"/>
<rect x="2700" y="258" width="324" height="150" fill="#C5FFF5"/>
<path d="M2700 752H3024V887L2953.5 948L2858 975.5L2771 948L2700 887V752Z" fill="#82D1F5"/>
<path d="M3293 754H3617V889L3546.5 950L3451 977.5L3364 950L3293 889V754Z" fill="#82D1F5"/>
<path d="M2109 752H2433V887L2362.5 948L2267 975.5L2180 948L2109 887V752Z" fill="#C5FFF5"/>
<rect x="3293" y="581" width="324" height="173" fill="#82D1F5"/>
<rect x="2109" y="579" width="324" height="173" fill="#82D1F5"/>
<path d="M2012 235H2526.29M2097.71 406.429H2212M2097.71 577.857H2212M2097.71 749.286H2212M2440.57 235V806.429C2440.57 851.894 2422.51 895.498 2390.36 927.647C2358.21 959.796 2314.61 977.857 2269.14 977.857C2223.68 977.857 2180.07 959.796 2147.92 927.647C2115.78 895.498 2097.71 851.894 2097.71 806.429V235" stroke="#006CA9" stroke-width="30" stroke-linecap="round" stroke-linejoin="round"/>
<path d="M3198 235H3712.29M3283.71 406.429H3398M3283.71 577.857H3398M3283.71 749.286H3398M3626.57 235V806.429C3626.57 851.894 3608.51 895.498 3576.36 927.647C3544.21 959.796 3500.61 977.857 3455.14 977.857C3409.68 977.857 3366.07 959.796 3333.92 927.647C3301.78 895.498 3283.71 851.894 3283.71 806.429V235" stroke="#006CA9" stroke-width="30" stroke-linecap="round" stroke-linejoin="round"/>
<path d="M2605 235H3119.29M2690.71 406.429H2805M2690.71 577.857H2805M2690.71 749.286H2805M3033.57 235V806.429C3033.57 851.894 3015.51 895.498 2983.36 927.647C2951.21 959.796 2907.61 977.857 2862.14 977.857C2816.68 977.857 2773.07 959.796 2740.92 927.647C2708.78 895.498 2690.71 851.894 2690.71 806.429V235" stroke="#006CA9" stroke-width="30" stroke-linecap="round" stroke-linejoin="round"/>
<path d="M1936.79 319.216V307.107L1967.16 259.273H1977.6V276.034H1971.42L1952.28 306.325V306.893H1995.42V319.216H1936.79ZM1971.7 332V315.523L1971.99 310.161V259.273H1986.4V332H1971.7Z" fill="#737370"/>
<rect x="2700" y="1325" width="324" height="173" fill="#C5FFF5"/>
<rect x="2700" y="1498" width="324" height="173" fill="#C5FFF5"/>
<rect x="2700" y="1175" width="324" height="150" fill="#C5FFF5"/>
<path d="M2700 1669H3024V1804L2953.5 1865L2858 1892.5L2771 1865L2700 1804V1669Z" fill="#82D1F5"/>
<path d="M3293 1671H3617V1806L3546.5 1867L3451 1894.5L3364 1867L3293 1806V1671Z" fill="#82D1F5"/>
<path d="M2109 1669H2433V1804L2362.5 1865L2267 1892.5L2180 1865L2109 1804V1669Z" fill="#C5FFF5"/>
<rect x="3293" y="1498" width="324" height="173" fill="#82D1F5"/>
<rect x="3293" y="1325" width="324" height="173" fill="#82D1F5"/>
<path d="M2012 1152H2526.29M2097.71 1323.43H2212M2097.71 1494.86H2212M2097.71 1666.29H2212M2440.57 1152V1723.43C2440.57 1768.89 2422.51 1812.5 2390.36 1844.65C2358.21 1876.8 2314.61 1894.86 2269.14 1894.86C2223.68 1894.86 2180.07 1876.8 2147.92 1844.65C2115.78 1812.5 2097.71 1768.89 2097.71 1723.43V1152" stroke="#006CA9" stroke-width="30" stroke-linecap="round" stroke-linejoin="round"/>
<path d="M3198 1152H3712.29M3283.71 1323.43H3398M3283.71 1494.86H3398M3283.71 1666.29H3398M3626.57 1152V1723.43C3626.57 1768.89 3608.51 1812.5 3576.36 1844.65C3544.21 1876.8 3500.61 1894.86 3455.14 1894.86C3409.68 1894.86 3366.07 1876.8 3333.92 1844.65C3301.78 1812.5 3283.71 1768.89 3283.71 1723.43V1152" stroke="#006CA9" stroke-width="30" stroke-linecap="round" stroke-linejoin="round"/>
<path d="M2605 1152H3119.29M2690.71 1323.43H2805M2690.71 1494.86H2805M2690.71 1666.29H2805M3033.57 1152V1723.43C3033.57 1768.89 3015.51 1812.5 2983.36 1844.65C2951.21 1876.8 2907.61 1894.86 2862.14 1894.86C2816.68 1894.86 2773.07 1876.8 2740.92 1844.65C2708.78 1812.5 2690.71 1768.89 2690.71 1723.43V1152" stroke="#006CA9" stroke-width="30" stroke-linecap="round" stroke-linejoin="round"/>
<path d="M1964.46 1249.99C1959.44 1249.99 1954.96 1249.07 1951.03 1247.22C1947.13 1245.38 1944.03 1242.83 1941.73 1239.59C1939.43 1236.35 1938.24 1232.63 1938.14 1228.44H1953.06C1953.22 1231.26 1954.41 1233.54 1956.61 1235.29C1958.81 1237.04 1961.43 1237.92 1964.46 1237.92C1966.87 1237.92 1969 1237.39 1970.85 1236.32C1972.72 1235.23 1974.18 1233.73 1975.22 1231.81C1976.28 1229.87 1976.82 1227.65 1976.82 1225.14C1976.82 1222.58 1976.27 1220.33 1975.18 1218.39C1974.12 1216.45 1972.64 1214.93 1970.74 1213.84C1968.85 1212.75 1966.68 1212.2 1964.24 1212.17C1962.11 1212.17 1960.04 1212.61 1958.03 1213.49C1956.04 1214.36 1954.49 1215.56 1953.38 1217.08L1939.71 1214.62L1943.15 1176.27H1987.61V1188.84H1955.83L1953.95 1207.06H1954.37C1955.65 1205.26 1957.58 1203.77 1960.16 1202.59C1962.74 1201.4 1965.63 1200.81 1968.83 1200.81C1973.21 1200.81 1977.11 1201.84 1980.54 1203.9C1983.98 1205.96 1986.69 1208.79 1988.68 1212.39C1990.66 1215.96 1991.65 1220.08 1991.62 1224.75C1991.65 1229.65 1990.51 1234 1988.21 1237.81C1985.94 1241.6 1982.76 1244.58 1978.66 1246.76C1974.59 1248.92 1969.86 1249.99 1964.46 1249.99Z" fill="#737370"/>
<rect x="2109" y="2240" width="324" height="173" fill="#C5FFF5"/>
<rect x="2109" y="2413" width="324" height="173" fill="#C5FFF5"/>
<rect x="2109" y="2090" width="324" height="150" fill="#C5FFF5"/>
<path d="M2700 2586H3024V2721L2953.5 2782L2858 2809.5L2771 2782L2700 2721V2586Z" fill="#82D1F5"/>
<path d="M3293 2588H3617V2723L3546.5 2784L3451 2811.5L3364 2784L3293 2723V2588Z" fill="#82D1F5"/>
<path d="M2109 2586H2433V2721L2362.5 2782L2267 2809.5L2180 2782L2109 2721V2586Z" fill="#C5FFF5"/>
<rect x="3293" y="2415" width="324" height="173" fill="#82D1F5"/>
<rect x="3293" y="2242" width="324" height="173" fill="#82D1F5"/>
<path d="M2012 2069H2526.29M2097.71 2240.43H2212M2097.71 2411.86H2212M2097.71 2583.29H2212M2440.57 2069V2640.43C2440.57 2685.89 2422.51 2729.5 2390.36 2761.65C2358.21 2793.8 2314.61 2811.86 2269.14 2811.86C2223.68 2811.86 2180.07 2793.8 2147.92 2761.65C2115.78 2729.5 2097.71 2685.89 2097.71 2640.43V2069" stroke="#006CA9" stroke-width="30" stroke-linecap="round" stroke-linejoin="round"/>
<path d="M3198 2069H3712.29M3283.71 2240.43H3398M3283.71 2411.86H3398M3283.71 2583.29H3398M3626.57 2069V2640.43C3626.57 2685.89 3608.51 2729.5 3576.36 2761.65C3544.21 2793.8 3500.61 2811.86 3455.14 2811.86C3409.68 2811.86 3366.07 2793.8 3333.92 2761.65C3301.78 2729.5 3283.71 2685.89 3283.71 2640.43V2069" stroke="#006CA9" stroke-width="30" stroke-linecap="round" stroke-linejoin="round"/>
<path d="M2605 2069H3119.29M2690.71 2240.43H2805M2690.71 2411.86H2805M2690.71 2583.29H2805M3033.57 2069V2640.43C3033.57 2685.89 3015.51 2729.5 2983.36 2761.65C2951.21 2793.8 2907.61 2811.86 2862.14 2811.86C2816.68 2811.86 2773.07 2793.8 2740.92 2761.65C2708.78 2729.5 2690.71 2685.89 2690.71 2640.43V2069" stroke="#006CA9" stroke-width="30" stroke-linecap="round" stroke-linejoin="round"/>
<path d="M1965.81 2166.99C1962.07 2166.97 1958.46 2166.34 1954.98 2165.11C1951.52 2163.88 1948.42 2161.88 1945.67 2159.11C1942.93 2156.34 1940.75 2152.67 1939.14 2148.1C1937.55 2143.53 1936.76 2137.92 1936.76 2131.27C1936.78 2125.16 1937.48 2119.71 1938.85 2114.9C1940.25 2110.07 1942.24 2105.97 1944.82 2102.61C1947.42 2099.25 1950.54 2096.69 1954.16 2094.94C1957.78 2093.17 1961.84 2092.28 1966.34 2092.28C1971.19 2092.28 1975.48 2093.23 1979.19 2095.12C1982.91 2096.99 1985.89 2099.53 1988.14 2102.75C1990.42 2105.97 1991.79 2109.58 1992.26 2113.59H1977.1C1976.51 2111.05 1975.26 2109.06 1973.37 2107.62C1971.48 2106.18 1969.13 2105.45 1966.34 2105.45C1961.6 2105.45 1958.01 2107.51 1955.54 2111.63C1953.11 2115.75 1951.86 2121.35 1951.82 2128.43H1952.31C1953.4 2126.27 1954.87 2124.44 1956.72 2122.92C1958.59 2121.39 1960.71 2120.21 1963.07 2119.41C1965.46 2118.58 1967.98 2118.17 1970.64 2118.17C1974.95 2118.17 1978.78 2119.18 1982.14 2121.22C1985.5 2123.23 1988.16 2126 1990.1 2129.53C1992.04 2133.06 1993.01 2137.09 1993.01 2141.64C1993.01 2146.56 1991.86 2150.94 1989.56 2154.78C1987.29 2158.61 1984.11 2161.62 1980.01 2163.8C1975.94 2165.95 1971.2 2167.02 1965.81 2166.99ZM1965.74 2154.92C1968.1 2154.92 1970.22 2154.35 1972.09 2153.22C1973.96 2152.08 1975.43 2150.54 1976.5 2148.6C1977.56 2146.66 1978.09 2144.48 1978.09 2142.07C1978.09 2139.65 1977.56 2137.48 1976.5 2135.57C1975.45 2133.65 1974.01 2132.12 1972.16 2130.99C1970.32 2129.85 1968.21 2129.28 1965.84 2129.28C1964.07 2129.28 1962.42 2129.61 1960.91 2130.28C1959.41 2130.94 1958.1 2131.86 1956.96 2133.05C1955.85 2134.23 1954.98 2135.6 1954.34 2137.16C1953.7 2138.7 1953.38 2140.35 1953.38 2142.1C1953.38 2144.44 1953.91 2146.59 1954.98 2148.53C1956.06 2150.47 1957.53 2152.02 1959.38 2153.18C1961.25 2154.34 1963.37 2154.92 1965.74 2154.92Z" fill="#737370"/>
<rect x="2109" y="3157" width="324" height="173" fill="#C5FFF5"/>
<rect x="2109" y="3330" width="324" height="173" fill="#C5FFF5"/>
<rect x="2109" y="3007" width="324" height="150" fill="#C5FFF5"/>
<path d="M3293 3505H3617V3640L3546.5 3701L3451 3728.5L3364 3701L3293 3640V3505Z" fill="#82D1F5"/>
<path d="M2109 3503H2433V3638L2362.5 3699L2267 3726.5L2180 3699L2109 3638V3503Z" fill="#C5FFF5"/>
<rect x="3293" y="3332" width="324" height="173" fill="#82D1F5"/>
<rect x="3293" y="3159" width="324" height="173" fill="#82D1F5"/>
<rect x="3293" y="3007" width="324" height="173" fill="#82D1F5"/>
<path d="M2012 2986H2526.29M2097.71 3157.43H2212M2097.71 3328.86H2212M2097.71 3500.29H2212M2440.57 2986V3557.43C2440.57 3602.89 2422.51 3646.5 2390.36 3678.65C2358.21 3710.8 2314.61 3728.86 2269.14 3728.86C2223.68 3728.86 2180.07 3710.8 2147.92 3678.65C2115.78 3646.5 2097.71 3602.89 2097.71 3557.43V2986" stroke="#006CA9" stroke-width="30" stroke-linecap="round" stroke-linejoin="round"/>
<path d="M3198 2986H3712.29M3283.71 3157.43H3398M3283.71 3328.86H3398M3283.71 3500.29H3398M3626.57 2986V3557.43C3626.57 3602.89 3608.51 3646.5 3576.36 3678.65C3544.21 3710.8 3500.61 3728.86 3455.14 3728.86C3409.68 3728.86 3366.07 3710.8 3333.92 3678.65C3301.78 3646.5 3283.71 3602.89 3283.71 3557.43V2986" stroke="#006CA9" stroke-width="30" stroke-linecap="round" stroke-linejoin="round"/>
<path d="M2605 2986H3119.29M2690.71 3157.43H2805M2690.71 3328.86H2805M2690.71 3500.29H2805M3033.57 2986V3557.43C3033.57 3602.89 3015.51 3646.5 2983.36 3678.65C2951.21 3710.8 2907.61 3728.86 2862.14 3728.86C2816.68 3728.86 2773.07 3710.8 2740.92 3678.65C2708.78 3646.5 2690.71 3602.89 2690.71 3557.43V2986" stroke="#006CA9" stroke-width="30" stroke-linecap="round" stroke-linejoin="round"/>
<path d="M1940.77 3083L1970.92 3023.34V3022.84H1935.8V3010.27H1986.83V3023.02L1956.64 3083H1940.77Z" fill="#FA8F00"/>
<path d="M33.4469 1105.54C35.3995 1107.49 38.5653 1107.49 40.518 1105.54L72.3378 1073.72C74.2904 1071.77 74.2904 1068.6 72.3378 1066.65C70.3851 1064.69 67.2193 1064.69 65.2667 1066.65L36.9824 1094.93L8.69815 1066.65C6.74553 1064.69 3.5797 1064.69 1.62708 1066.65C-0.325539 1068.6 -0.325539 1071.77 1.62708 1073.72L33.4469 1105.54ZM31.9824 356L31.9824 1102H41.9824L41.9824 356H31.9824Z" fill="#82D1F5"/>
<path d="M1962.46 2939.54C1964.42 2941.49 1967.58 2941.49 1969.54 2939.54L2001.36 2907.72C2003.31 2905.77 2003.31 2902.6 2001.36 2900.65C1999.4 2898.69 1996.24 2898.69 1994.28 2900.65L1966 2928.93L1937.72 2900.65C1935.76 2898.69 1932.6 2898.69 1930.64 2900.65C1928.69 2902.6 1928.69 2905.77 1930.64 2907.72L1962.46 2939.54ZM1961 2190V2936H1971V2190H1961Z" fill="#82D1F5"/>
<path d="M1962.46 2045.54C1964.42 2047.49 1967.58 2047.49 1969.54 2045.54L2001.36 2013.72C2003.31 2011.77 2003.31 2008.6 2001.36 2006.65C1999.4 2004.69 1996.24 2004.69 1994.28 2006.65L1966 2034.93L1937.72 2006.65C1935.76 2004.69 1932.6 2004.69 1930.64 2006.65C1928.69 2008.6 1928.69 2011.77 1930.64 2013.72L1962.46 2045.54ZM1961 1296V2042H1971V1296H1961Z" fill="#82D1F5"/>
<path d="M1962.46 1105.54C1964.42 1107.49 1967.58 1107.49 1969.54 1105.54L2001.36 1073.72C2003.31 1071.77 2003.31 1068.6 2001.36 1066.65C1999.4 1064.69 1996.24 1064.69 1994.28 1066.65L1966 1094.93L1937.72 1066.65C1935.76 1064.69 1932.6 1064.69 1930.64 1066.65C1928.69 1068.6 1928.69 1071.77 1930.64 1073.72L1962.46 1105.54ZM1961 356V1102H1971V356H1961Z" fill="#82D1F5"/>
<path d="M34.4645 2939.54C36.4171 2941.49 39.5829 2941.49 41.5355 2939.54L73.3553 2907.72C75.308 2905.77 75.308 2902.6 73.3553 2900.65C71.4027 2898.69 68.2369 2898.69 66.2843 2900.65L38 2928.93L9.71573 2900.65C7.76311 2898.69 4.59728 2898.69 2.64466 2900.65C0.692039 2902.6 0.692039 2905.77 2.64466 2907.72L34.4645 2939.54ZM33 2190L33 2936H43L43 2190H33Z" fill="#82D1F5"/>
<path d="M34.4645 2045.54C36.4171 2047.49 39.5829 2047.49 41.5355 2045.54L73.3553 2013.72C75.308 2011.77 75.308 2008.6 73.3553 2006.65C71.4027 2004.69 68.2369 2004.69 66.2843 2006.65L38 2034.93L9.71573 2006.65C7.76311 2004.69 4.59728 2004.69 2.64466 2006.65C0.692039 2008.6 0.692039 2011.77 2.64466 2013.72L34.4645 2045.54ZM33 1296L33 2042H43L43 1296H33Z" fill="#82D1F5"/>
<path d="M1935.7 350.633C1933.84 348.592 1930.68 348.444 1928.63 350.303L1895.36 380.603C1893.32 382.462 1893.17 385.625 1895.03 387.666C1896.89 389.708 1900.05 389.856 1902.1 387.996L1931.67 361.063L1958.6 390.637C1960.46 392.679 1963.62 392.826 1965.67 390.967C1967.71 389.108 1967.86 385.945 1966 383.904L1935.7 350.633ZM1813.99 2986.23L1936.99 354.233L1927.01 353.766L1804.01 2985.77L1813.99 2986.23Z" fill="#82D1F5"/>
</svg>
